<?xml version="1.0" encoding="utf-8"?>
<!-- Generator: Adobe Illustrator 19.0.0, SVG Export Plug-In . SVG Version: 6.00 Build 0)  -->
<svg version="1.1" baseProfile="tiny" id="Layer_1" xmlns="http://www.w3.org/2000/svg" xmlns:xlink="http://www.w3.org/1999/xlink"
	 x="0px" y="0px" viewBox="0 0 570 370" xml:space="preserve">
<g id="XMLID_1_">
	<path id="XMLID_2_" fill="#FFD889" d="M326.4,258.3H251c-4.5,0-8.1-3.7-8.1-8.1V132.9c0-4.5,3.7-8.1,8.1-8.1h75.4
		c4.5,0,8.1,3.7,8.1,8.1v117.2C334.5,254.6,330.9,258.3,326.4,258.3z"/>
	<g id="face">
		
			<line id="XMLID_4_" fill="none" stroke="#7F7F7F" stroke-width="2" stroke-linecap="round" stroke-miterlimit="10" x1="237.4" y1="145.5" x2="237.4" y2="138.1"/>
		
			<line id="XMLID_5_" fill="none" stroke="#7F7F7F" stroke-width="2" stroke-linecap="round" stroke-miterlimit="10" x1="237.4" y1="155.9" x2="237.4" y2="152"/>
		
			<line id="XMLID_7_" fill="none" stroke="#7F7F7F" stroke-width="2" stroke-linecap="round" stroke-miterlimit="10" x1="237.4" y1="219.5" x2="237.4" y2="162"/>
		<path id="XMLID_6_" fill="none" stroke="#7F7F7F" stroke-width="2" stroke-linecap="round" stroke-miterlimit="10" d="
			M237.4,131.8v-7.6c0-2.7,2.2-5,5-5h56.5c2.7,0,30.2,30.1,30.2,32.8v95.7c0,2.7-2.2,5-5,5h-81.7c-2.7,0-5-2.2-5-5v-21.8"/>
		<path id="XMLID_8_" fill="none" stroke="#7F7F7F" stroke-width="2" stroke-miterlimit="10" d="M330.1,151.9h-26
			c-3.3,0-5.9-2.7-5.9-5.9v-26"/>
		<circle id="XMLID_9_" fill="none" stroke="#7F7F7F" stroke-width="2" stroke-miterlimit="10" cx="264.6" cy="173.3" r="6.3"/>
		<circle id="XMLID_10_" fill="none" stroke="#7F7F7F" stroke-width="2" stroke-miterlimit="10" cx="300.8" cy="173.3" r="6.3"/>
		<path id="XMLID_11_" fill="none" stroke="#7F7F7F" stroke-width="2" stroke-linecap="round" stroke-miterlimit="10" d="
			M255.8,210.1c0-9.4,12.4-17,27.6-17c15.2,0,27.6,7.6,27.6,17"/>
		<g id="XMLID_12_">
			
				<line id="XMLID_13_" fill="none" stroke="#7F7F7F" stroke-width="2" stroke-linecap="round" stroke-miterlimit="10" x1="255" y1="230" x2="286" y2="230"/>
			
				<line id="XMLID_14_" fill="none" stroke="#7F7F7F" stroke-width="2" stroke-linecap="round" stroke-miterlimit="10" x1="255" y1="236" x2="309" y2="236"/>
			
				<line id="XMLID_15_" fill="none" stroke="#7F7F7F" stroke-width="2" stroke-linecap="round" stroke-miterlimit="10" x1="255" y1="241" x2="298" y2="241"/>
		</g>
	</g>
	<g id="clouds">
		
			<line id="XMLID_16_" fill="none" stroke="#AAAAAA" stroke-width="5" stroke-linecap="round" stroke-miterlimit="10" x1="248" y1="312.5" x2="311" y2="312.5"/>
		
			<line id="XMLID_19_" fill="none" stroke="#AAAAAA" stroke-width="5" stroke-linecap="round" stroke-miterlimit="10" x1="372" y1="84.5" x2="433" y2="84.5"/>
		
			<line id="XMLID_17_" fill="none" stroke="#AAAAAA" stroke-width="5" stroke-linecap="round" stroke-miterlimit="10" x1="152" y1="268.5" x2="222" y2="268.5"/>
		
			<line id="XMLID_20_" fill="none" stroke="#AAAAAA" stroke-width="5" stroke-linecap="round" stroke-miterlimit="10" x1="288" y1="41.5" x2="357" y2="41.5"/>
		
			<line id="XMLID_18_" fill="none" stroke="#AAAAAA" stroke-width="5" stroke-linecap="round" stroke-miterlimit="10" x1="343" y1="282.5" x2="383" y2="282.5"/>
		
			<line id="XMLID_21_" fill="none" stroke="#AAAAAA" stroke-width="5" stroke-linecap="round" stroke-miterlimit="10" x1="397" y1="179.5" x2="439" y2="179.5"/>
		
			<line id="XMLID_22_" fill="none" stroke="#AAAAAA" stroke-width="5" stroke-linecap="round" stroke-miterlimit="10" x1="148" y1="127.5" x2="190" y2="127.5"/>
	</g>
	
		<circle id="XMLID_3_" fill="#AAAAAA" stroke="#AAAAAA" stroke-width="5" stroke-linecap="round" stroke-miterlimit="10" cx="177.9" cy="153.8" r="2.9"/>
	
		<circle id="XMLID_23_" fill="#AAAAAA" stroke="#AAAAAA" stroke-width="5" stroke-linecap="round" stroke-miterlimit="10" cx="317.2" cy="285.7" r="2.9"/>
	
		<circle id="XMLID_24_" fill="#AAAAAA" stroke="#AAAAAA" stroke-width="5" stroke-linecap="round" stroke-miterlimit="10" cx="349.1" cy="101.7" r="2.9"/>
	<g id="XMLID_25_">
		<path id="XMLID_32_" fill="#FFE8BA" d="M432.1,240h-70.6c-2.5,0-4.6,2.5-4.6,5s2.1,5,4.6,5h22.2c2.5,0,4.6,1.7,4.6,4.2
			c0,1.3-0.5,2-1.3,2.8c-0.8,0.8-2,0.9-3.3,0.9h-17c-2.5,0-4.6,2.5-4.6,5s2.1,5,4.6,5h52.1c2.5,0,4.6-2.5,4.6-5s-2.1-5-4.6-5H413
			c-2.5,0-4.6-1.9-4.6-4.4c0-1.3,0.5-1.9,1.3-2.8c0.8-0.8,2-0.9,3.3-0.9h19.1c2.5,0,4.6-2.5,4.6-5S434.6,240,432.1,240z"/>
		<circle id="XMLID_26_" fill="#FFE8BA" cx="432.1" cy="263" r="4.6"/>
	</g>
	<g id="XMLID_29_">
		<g id="XMLID_28_">
			<path id="XMLID_34_" fill="#FFE8BA" d="M254.4,49H145.6c-3.9,0-7.6,3.4-7.6,7.3v0c0,3.9,3.7,6.8,7.6,6.8h35.2
				c3.4,1,6.1,3.6,6.1,7.2c0,2-0.8,3.6-2.1,4.9c-1.3,1.3-3.1,1.8-5,1.8h45.1c-3.9,0-7.1-2.9-7.1-6.8c0-2,0.8-3.7,2.1-5
				c1.1-1.1,2.5-1.1,4-2.1h30.5c3.9,0,7.6-2.9,7.6-6.8v0C262,52.3,258.3,49,254.4,49z"/>
			<path id="XMLID_36_" fill="#FFE8BA" d="M241,84c0-3.8-3.1-7-7-7H153c-3.8,0-7,3.1-7,7V84c0,3.8,3.1,7,7,7H234
				C237.9,91,241,87.9,241,84L241,84z"/>
		</g>
		<circle id="XMLID_30_" fill="#FFE8BA" cx="254.4" cy="84.7" r="7.1"/>
	</g>
</g>
</svg>
